<svg width="212" height="185" viewBox="0 0 212 185" fill="none" xmlns="http://www.w3.org/2000/svg">
<g id="Union">
<mask id="path-1-inside-1" fill="white">
<path fill-rule="evenodd" clip-rule="evenodd" d="M196.694 45.876H211.244V94.381H211.158C210.072 144.492 163.376 184.821 105.931 184.821C47.8043 184.821 0.683716 143.53 0.683716 92.5948C0.683716 91.4882 0.705959 90.3861 0.750076 89.2888V45.876H15.1671C33.4611 18.6436 67.2603 0.368202 105.931 0.368202C144.601 0.368202 178.4 18.6436 196.694 45.876Z"/>
</mask>
<path fill-rule="evenodd" clip-rule="evenodd" d="M196.694 45.876H211.244V94.381H211.158C210.072 144.492 163.376 184.821 105.931 184.821C47.8043 184.821 0.683716 143.53 0.683716 92.5948C0.683716 91.4882 0.705959 90.3861 0.750076 89.2888V45.876H15.1671C33.4611 18.6436 67.2603 0.368202 105.931 0.368202C144.601 0.368202 178.4 18.6436 196.694 45.876Z" fill="url(#paint0_radial)"/>
<path d="M211.244 45.876H215.244V41.876H211.244V45.876ZM196.694 45.876L193.374 48.1065L194.562 49.876H196.694V45.876ZM211.244 94.381V98.381H215.244V94.381H211.244ZM211.158 94.381V90.381H207.244L207.159 94.2943L211.158 94.381ZM0.750076 89.2888L4.74685 89.4495L4.75008 89.3692V89.2888H0.750076ZM0.750076 45.876V41.876H-3.24992V45.876H0.750076ZM15.1671 45.876V49.876H17.2988L18.4875 48.1065L15.1671 45.876ZM211.244 41.876H196.694V49.876H211.244V41.876ZM215.244 94.381V45.876H207.244V94.381H215.244ZM211.158 98.381H211.244V90.381H211.158V98.381ZM207.159 94.2943C206.13 141.77 161.692 180.821 105.931 180.821V188.821C165.059 188.821 214.014 147.214 215.157 94.4677L207.159 94.2943ZM105.931 180.821C49.5009 180.821 4.68372 140.841 4.68372 92.5948H-3.31628C-3.31628 146.219 46.1078 188.821 105.931 188.821V180.821ZM4.68372 92.5948C4.68372 91.5418 4.70488 90.4932 4.74685 89.4495L-3.24669 89.1281C-3.29296 90.2789 -3.31628 91.4346 -3.31628 92.5948H4.68372ZM-3.24992 45.876V89.2888H4.75008V45.876H-3.24992ZM15.1671 41.876H0.750076V49.876H15.1671V41.876ZM18.4875 48.1065C35.9841 22.0611 68.4922 4.3682 105.931 4.3682V-3.6318C66.0285 -3.6318 30.9381 15.2262 11.8468 43.6454L18.4875 48.1065ZM105.931 4.3682C143.369 4.3682 175.877 22.0611 193.374 48.1065L200.014 43.6454C180.923 15.2262 145.833 -3.6318 105.931 -3.6318V4.3682Z" fill="#323345" mask="url(#path-1-inside-1)"/>
</g>
<defs>
<radialGradient id="paint0_radial" cx="0" cy="0" r="1" gradientUnits="userSpaceOnUse" gradientTransform="translate(105.997 70.1285) rotate(90) scale(24.2525 105.247)">
<stop stop-color="#FA807D"/>
<stop offset="1" stop-color="#CD5551"/>
</radialGradient>
</defs>
</svg>
